HIERARCHY
ROOT Hips
{
	OFFSET -0.001795 -0.223333 0.028219
	CHANNELS 6 Xposition Yposition Zposition Zrotation Yrotation Xrotation 
	JOINT LeftUpLeg
	{
		OFFSET 0.069520 -0.091406 -0.006815
		CHANNELS 3 Zrotation Yrotation Xrotation
		JOINT LeftLeg
		{
			OFFSET 0.034277 -0.375199 -0.004496
			CHANNELS 3 Zrotation Yrotation Xrotation
			JOINT LeftFoot
			{
				OFFSET -0.013596 -0.397961 -0.043693
				CHANNELS 3 Zrotation Yrotation Xrotation
				JOINT LeftToe
				{
					OFFSET 0.026358 -0.055791 0.119288
					CHANNELS 3 Zrotation Yrotation Xrotation
					End Site
					{
						OFFSET 0.000000 0.000000 0.000000
					}
				}
			}
		}
	}
	JOINT RightUpLeg
	{
		OFFSET -0.067670 -0.090522 -0.004320
		CHANNELS 3 Zrotation Yrotation Xrotation
		JOINT RightLeg
		{
			OFFSET -0.038290 -0.382569 -0.008850
			CHANNELS 3 Zrotation Yrotation Xrotation
			JOINT RightFoot
			{
				OFFSET 0.015774 -0.398415 -0.042312
				CHANNELS 3 Zrotation Yrotation Xrotation
				JOINT RightToe
				{
					OFFSET -0.025372 -0.048144 0.123348
					CHANNELS 3 Zrotation Yrotation Xrotation
					End Site
					{
						OFFSET 0.000000 0.000000 0.000000
					}
				}
			}
		}
	}
	JOINT Spine
	{
		OFFSET -0.002533 0.108963 -0.026696
		CHANNELS 3 Zrotation Yrotation Xrotation
		JOINT Spine1
		{
			OFFSET 0.005487 0.135180 0.001092
			CHANNELS 3 Zrotation Yrotation Xrotation
			JOINT Spine2
			{
				OFFSET 0.001457 0.052922 0.025425
				CHANNELS 3 Zrotation Yrotation Xrotation
				JOINT Neck
				{
					OFFSET -0.002778 0.213870 -0.042857
					CHANNELS 3 Zrotation Yrotation Xrotation
					JOINT Head
					{
						OFFSET 0.005152 0.064970 0.051349
						CHANNELS 3 Zrotation Yrotation Xrotation
						End Site
						{
							OFFSET 0.000000 0.000000 0.000000
						}
					}
				}
				JOINT LeftShoulder
				{
					OFFSET 0.078845 0.121749 -0.034090
					CHANNELS 3 Zrotation Yrotation Xrotation
					JOINT LeftArm
					{
						OFFSET 0.090977 0.030469 -0.008868
						CHANNELS 3 Zrotation Yrotation Xrotation
						JOINT LeftForeArm
						{
							OFFSET 0.259612 -0.012772 -0.027456
							CHANNELS 3 Zrotation Yrotation Xrotation
							JOINT LeftHand
							{
								OFFSET 0.249234 0.008986 -0.001171
								CHANNELS 3 Zrotation Yrotation Xrotation
								End Site
								{
									OFFSET 0.000000 0.000000 0.000000
								}
							}
						}
					}
				}
				JOINT RightShoulder
				{
					OFFSET -0.081759 0.118833 -0.038615
					CHANNELS 3 Zrotation Yrotation Xrotation
					JOINT RightArm
					{
						OFFSET -0.096012 0.032551 -0.009143
						CHANNELS 3 Zrotation Yrotation Xrotation
						JOINT RightForeArm
						{
							OFFSET -0.253742 -0.013329 -0.021401
							CHANNELS 3 Zrotation Yrotation Xrotation
							JOINT RightHand
							{
								OFFSET -0.255298 0.007772 -0.005559
								CHANNELS 3 Zrotation Yrotation Xrotation
								End Site
								{
									OFFSET 0.000000 0.000000 0.000000
								}
							}
						}
					}
				}
			}
		}
	}
}
MOTION
Frames: 5
Frame Time: 0.050000
-1.015020 0.930968 3.909457 179.272017 53.342735 175.761370 -1.851566 -1.272100 -12.543044 -14.983755 -9.903927 23.829758 37.806860 13.265660 13.009320 0.000000 0.000000 0.000000 4.983936 -5.436584 13.383709 -1.309265 -3.239642 2.163094 15.681899 -7.255322 -12.592870 0.000000 0.000000 0.000000 -5.657933 -2.602600 14.566792 -4.476178 -4.534712 -1.942358 6.459952 16.392475 5.746287 1.262041 5.212555 -20.749159 0.000000 0.000000 0.000000 -18.703558 -4.884501 -37.343047 -45.291191 26.938306 -11.221918 -18.927396 -21.071304 0.236330 0.000000 0.000000 0.000000 18.138727 -2.737735 21.464214 53.855161 33.454853 11.176892 -6.692582 26.875492 -1.444753 0.000000 0.000000 0.000000 
-1.027224 0.930890 3.915056 -179.715273 52.946564 176.646879 -3.901271 -0.435088 -6.846858 -10.923246 -8.524008 22.464503 37.874398 11.429041 10.237895 0.000000 0.000000 0.000000 6.061098 -4.902680 12.618127 -1.724207 -2.794958 1.539936 15.301510 -8.889534 -13.040501 0.000000 0.000000 0.000000 -4.101320 -2.147936 13.399991 -5.201387 -5.062467 -1.261099 6.206685 14.718707 6.428739 2.811668 5.340978 -20.727597 0.000000 0.000000 0.000000 -18.015813 -5.258406 -36.294506 -46.081533 25.775054 -11.238388 -18.507595 -20.619185 0.032015 0.000000 0.000000 0.000000 19.154390 -2.805353 21.963262 53.827497 33.415011 10.783251 -7.235474 25.460067 -1.660266 0.000000 0.000000 0.000000 
-1.036293 0.930901 3.917137 -178.895785 51.611406 178.008128 -5.209052 -0.471326 -2.458091 -5.526487 -5.155133 14.499157 34.474643 6.255647 7.317542 0.000000 0.000000 0.000000 6.862822 -3.655615 10.290724 -2.018352 -3.005090 2.155334 14.943123 -10.417947 -12.994066 0.000000 0.000000 0.000000 -3.092589 -1.588773 11.766924 -5.010087 -5.542153 -1.229750 5.796826 13.034265 7.225599 3.275347 5.302644 -20.774891 0.000000 0.000000 0.000000 -17.790910 -7.501921 -35.975298 -45.641576 25.494409 -10.663620 -17.750087 -20.074701 -0.041117 0.000000 0.000000 0.000000 20.297229 -4.378595 21.990527 53.345515 32.090729 9.512357 -6.260931 25.536640 -1.536808 0.000000 0.000000 0.000000 
-1.042817 0.930287 3.916569 -178.188582 49.695925 179.259181 -5.897998 -1.002125 1.060120 -2.578266 -3.288315 8.480612 32.907604 3.054778 6.496565 0.000000 0.000000 0.000000 7.950484 -2.646726 8.267302 -2.709619 -2.959343 2.537690 15.097839 -12.070993 -13.913257 0.000000 0.000000 0.000000 -2.725957 -1.201956 10.331865 -4.350728 -5.975451 -1.301900 5.554800 11.218081 7.488254 4.610422 5.538872 -21.707810 0.000000 0.000000 0.000000 -17.193015 -8.645501 -36.133753 -45.328482 26.369295 -10.902803 -19.115321 -20.664487 0.099475 0.000000 0.000000 0.000000 20.864508 -4.281425 23.160529 52.774331 31.958353 8.923463 -6.553230 24.242299 -1.693079 0.000000 0.000000 0.000000 
-1.047215 0.930511 3.914027 -177.826262 47.955002 179.512808 -6.138919 -1.558766 3.125300 -1.451524 -2.656706 4.446361 32.629165 1.466331 5.685183 0.000000 0.000000 0.000000 7.687547 -2.490839 7.612691 -2.773027 -3.484386 3.495293 15.094754 -13.391103 -14.080379 0.000000 0.000000 0.000000 -2.721128 -1.123703 9.930310 -4.186300 -6.623192 -0.847652 5.533192 11.154635 7.198875 4.605873 5.168284 -21.332763 0.000000 0.000000 0.000000 -16.100471 -9.093234 -35.865611 -45.716919 26.538037 -11.469116 -20.365906 -20.358888 0.129516 0.000000 0.000000 0.000000 20.627044 -4.145036 23.711434 53.166079 31.775200 9.151101 -6.791251 23.333497 -1.815596 0.000000 0.000000 0.000000 
